<svg xmlns="http://www.w3.org/2000/svg" xmlns:xlink="http://www.w3.org/1999/xlink" width="512" height="512" viewBox="0 0 512 512" fill="none"><g opacity="1"  transform="translate(512 0)  rotate(0)"><path id="矩形 " fill-rule="evenodd" style="fill:#FFFFFF" opacity="0" d="M-5 512L-507 512C-509.76 512 -512 509.76 -512 507L-512 5C-512 2.24 -509.76 0 -507 0L-5 0C-2.24 0 0 2.24 0 5L0 507C0 509.76 -2.24 512 -5 512Z"></path><g opacity="1"  transform="translate(-18 65)  rotate(0)"><path id="路径 74" fill-rule="evenodd" style="fill:#525075" opacity="1" d="M-419.68 197.46C-420.45 180.59 -421.22 164.11 -421.99 147.63C-422.38 142.26 -423.53 134.98 -416.61 133.06C-408.15 131.14 -406.61 139.58 -404.3 144.94C-399.69 155.29 -395.46 165.64 -390.84 176.38C-384.31 171.78 -382.77 165.26 -379.69 159.89C-373.16 148.39 -367.77 138.43 -377.77 124.24C-387 111.59 -378.15 95.49 -362.39 89.36C-347.39 83.61 -345.47 75.56 -356.24 64.83C-361.62 59.07 -368.16 54.86 -373.92 49.87C-383.54 41.82 -387.38 31.09 -382.77 19.21C-377.77 6.94 -367.77 0.42 -354.31 0.04C-337.39 -0.73 -326.63 9.62 -317.78 21.51C-308.17 34.54 -300.09 43.36 -284.71 28.02C-279.71 22.66 -269.71 19.21 -271.25 34.16C-271.64 37.99 -275.87 44.12 -270.1 45.66C-263.18 47.19 -260.87 41.06 -259.33 34.92C-256.26 21.89 -247.03 13.84 -233.18 14.22C-219.72 14.61 -208.19 21.12 -203.96 34.92C-201.27 43.36 -197.04 47.57 -189.35 51.02C-183.19 53.32 -173.58 53.32 -173.58 62.14C-173.96 69.81 -185.12 66.74 -188.58 72.88C-177.04 74.41 -165.89 75.94 -155.51 80.93C-151.66 82.46 -148.2 84.38 -148.59 88.98C-148.97 93.96 -153.58 93.58 -157.43 93.96C-163.97 94.34 -170.89 94.73 -178.19 100.09C-154.74 100.86 -133.59 102.78 -114.75 113.51C-111.28 115.43 -106.67 117.73 -107.82 123.48C-108.98 128.46 -113.59 127.31 -117.05 128.46C-123.59 130.76 -131.67 129.23 -138.2 135.74C-128.59 139.96 -120.13 143.03 -112.44 147.24C-105.9 150.69 -94.75 157.98 -97.83 162.58C-107.44 175.99 -95.52 180.59 -90.52 187.11C-78.6 203.21 -68.22 219.7 -61.3 238.48C-58.99 244.61 -60.91 255.35 -48.61 253.81C-37.07 252.28 -30.15 246.15 -27.84 234.65C-23.99 214.33 -34.76 192.48 -53.22 182.51C-59.76 179.06 -66.29 174.46 -72.06 169.48C-82.83 160.66 -82.83 154.14 -67.45 151.46C-63.6 151.08 -56.68 153.38 -58.22 145.71C-64.76 110.44 -28.99 154.53 -29.76 130.38C-23.61 130.76 -22.07 135.74 -19.77 140.34C-15.54 149.16 -14.77 159.13 -16.69 168.33C-18.23 175.99 -16.69 180.98 -12.46 187.49C14.07 229.66 -3.23 275.66 -50.53 290.61C-56.3 292.53 -60.91 294.06 -61.68 301.35C-63.6 320.13 -75.14 334.32 -85.14 348.88C-88.6 353.48 -93.6 357.32 -92.83 363.83C-88.98 392.97 -111.28 379.55 -122.44 380.7C-139.36 382.62 -133.97 370.35 -132.05 361.15C-131.28 356.17 -131.28 351.18 -136.66 347.35C-143.59 352.33 -147.05 358.08 -147.05 367.67C-146.28 392.58 -165.89 379.17 -176.27 381.08C-190.12 383.38 -189.35 374.18 -186.65 363.83C-183.19 351.18 -187.04 343.9 -202.04 345.82C-212.8 347.35 -223.95 347.35 -234.72 346.97C-251.26 346.2 -260.1 355.78 -260.87 370.35C-261.64 381.47 -266.25 382.23 -275.1 382.62C-302.78 383.77 -302.78 383.77 -299.71 357.7C-299.32 356.17 -300.48 354.25 -301.25 351.95C-309.71 354.63 -312.01 359.62 -309.32 368.05C-307.78 372.65 -307.78 378.4 -312.4 379.93C-323.55 383.38 -335.47 383.77 -346.24 380.32C-354.31 377.63 -349.7 368.05 -349.31 361.53C-348.54 347.73 -350.85 339.68 -368.54 338.53C-395.07 336.62 -421.61 334.32 -448.52 338.92C-471.98 342.75 -482.36 327.42 -472.37 306.33C-468.52 298.28 -470.44 291.38 -471.21 284.1C-473.13 266.85 -476.98 247.3 -463.91 234.65C-451.6 222.76 -452.75 210.5 -453.14 196.7C-453.52 189.79 -453.52 182.51 -453.52 175.61C-453.52 169.86 -451.99 165.26 -445.83 164.11C-440.83 163.34 -437.76 167.18 -435.83 171.39C-431.22 180.98 -426.99 190.95 -422.38 200.53C-421.61 200.15 -420.84 199.76 -419.68 197.46Z"></path><path id="路径 75" fill-rule="evenodd" style="fill:#6BD1B6" opacity="1" d="M-124.745 335.844C-129.745 320.894 -127.435 305.564 -127.825 290.234C-127.825 286.014 -128.585 281.794 -133.205 281.414C-137.815 281.414 -138.975 286.014 -138.975 289.844C-138.975 300.194 -138.975 310.164 -138.975 320.514C-138.585 327.034 -139.745 332.014 -147.815 332.014C-177.045 331.244 -206.265 338.914 -236.265 335.464C-233.185 321.284 -230.495 307.864 -228.185 294.064C-227.415 289.464 -228.185 284.094 -233.955 284.094C-238.955 284.094 -238.565 289.464 -238.955 292.914C-241.255 312.844 -245.875 331.634 -260.485 346.964C-265.105 351.954 -268.175 356.554 -276.255 354.254C-284.325 351.954 -290.095 349.654 -292.405 340.444C-295.865 325.884 -300.865 311.314 -299.705 295.594C-299.705 291.764 -299.325 286.784 -304.325 286.394C-310.475 285.634 -310.865 291.384 -310.865 295.594C-310.475 302.884 -311.625 311.314 -309.325 318.214C-304.705 332.014 -311.625 333.544 -322.395 332.394C-327.785 331.634 -332.775 330.864 -337.775 330.484C-366.615 328.184 -395.075 322.814 -423.915 324.734C-433.915 325.114 -444.295 327.414 -454.295 328.184C-460.065 328.564 -464.675 325.884 -464.675 319.364C-464.675 313.234 -460.835 310.164 -455.065 309.784C-451.215 309.394 -447.375 309.394 -443.525 309.784C-396.615 312.464 -351.625 307.484 -313.165 276.434C-307.015 271.444 -298.555 264.164 -289.325 271.444C-282.405 276.814 -279.325 272.594 -278.555 267.234C-277.025 257.644 -281.635 249.594 -290.475 245.384C-295.475 243.084 -300.865 242.694 -301.635 250.744C-302.785 265.694 -313.165 265.314 -321.625 259.944C-345.085 244.994 -366.615 228.134 -379.695 202.824C-382.385 197.464 -383.925 192.864 -380.845 186.724C-373.925 173.694 -368.925 159.894 -360.855 147.624C-355.085 138.814 -348.165 129.224 -333.935 141.114C-314.325 157.214 -288.175 146.864 -281.255 122.324C-279.325 115.814 -279.325 108.524 -273.565 103.164C-257.025 87.8241 -248.945 69.4241 -250.105 46.8041C-250.485 36.0741 -246.255 26.8741 -234.335 26.8741C-222.805 26.8741 -214.725 34.9241 -213.575 46.0441C-212.415 54.0941 -215.115 62.5241 -216.265 70.5741C-235.875 64.8241 -235.875 64.8241 -243.185 86.6741C-244.335 90.1241 -245.875 93.9641 -248.185 96.6441C-254.715 104.694 -252.415 111.214 -245.875 117.724C-247.415 122.714 -257.405 125.394 -251.645 131.524C-246.645 136.894 -241.255 129.994 -237.415 126.544C-232.415 121.944 -226.645 116.964 -223.185 111.214C-217.805 101.244 -212.415 102.774 -205.115 108.524C-190.885 119.264 -175.885 129.224 -161.655 139.964C-130.125 163.344 -100.135 188.264 -81.2946 223.534C-61.2946 260.714 -66.6746 311.694 -93.9846 343.514C-99.3646 350.034 -105.515 352.714 -113.975 351.564C-124.355 350.414 -122.825 341.984 -124.745 335.844Z"></path><path id="路径 76" fill-rule="evenodd" style="fill:#FDFCFD" opacity="1" d="M-372.003 290.615C-381.613 293.685 -385.073 290.995 -388.923 282.565C-405.843 247.295 -409.683 209.725 -407.763 170.245C-392.383 211.265 -368.153 244.995 -328.933 267.995C-341.623 281.794 -356.623 286.395 -372.003 290.615Z"></path><path id="路径 77" fill-rule="evenodd" style="fill:#73C4B0" opacity="1" d="M-363.93 44.5038C-372.77 37.9938 -378.54 29.1738 -368.92 19.2038C-360.08 10.0038 -348.93 10.3938 -339.7 18.0538C-331.62 24.1938 -325.09 32.2438 -318.55 39.9038C-314.32 45.2738 -310.09 50.6438 -314.71 58.6938C-318.94 65.9738 -325.47 66.7438 -335.85 67.5038C-347.01 65.5938 -353.16 51.7938 -363.93 44.5038Z"></path><path id="路径 78" fill-rule="evenodd" style="fill:#9BDCCB" opacity="1" d="M-437.374 299.048C-442.374 299.428 -447.374 298.668 -447.754 292.918C-449.294 277.198 -457.754 263.018 -458.134 246.918C-452.754 230.818 -442.374 232.728 -431.224 239.248C-411.994 251.128 -405.074 270.678 -398.534 290.618C-397.384 293.678 -400.074 296.368 -403.534 297.518C-414.684 300.968 -426.224 298.278 -437.374 299.048Z"></path><path id="路径 79" fill-rule="evenodd" style="fill:#FAFAFB" opacity="1" d="M-295.887 124.608C-295.877 124.608 -295.867 124.618 -295.867 124.628C-301.627 139.958 -313.547 139.958 -324.707 133.058C-338.157 124.628 -338.547 110.438 -332.007 97.7881C-325.477 85.5281 -313.167 81.3081 -301.247 90.1281C-289.057 99.2381 -284.037 110.978 -295.887 124.608C-296.777 123.898 -297.667 123.108 -298.507 122.308C-299.257 121.258 -300.047 120.238 -301.247 119.648C-300.427 120.458 -299.497 121.388 -298.507 122.308C-297.827 123.278 -297.167 124.278 -296.247 125.008C-296.127 124.878 -296.007 124.738 -295.887 124.608ZM-298.507 122.308C-297.667 123.108 -296.777 123.898 -295.887 124.608C-296.007 124.738 -296.127 124.878 -296.247 125.008C-297.167 124.278 -297.827 123.278 -298.507 122.308ZM-301.247 119.648C-300.047 120.238 -299.257 121.258 -298.507 122.308C-299.497 121.388 -300.427 120.458 -301.247 119.648Z"></path><path id="路径 80" fill-rule="evenodd" style="fill:#4B9D88" opacity="1" d="M-245.104 116.959C-256.644 116.959 -266.634 113.509 -257.414 100.859C-249.714 90.5085 -245.874 80.1585 -245.104 67.8885C-245.104 62.9085 -242.414 57.5385 -236.644 56.3885C-230.874 55.2385 -226.644 57.5385 -223.574 62.1385C-221.644 65.2085 -218.954 67.8885 -216.264 70.5785C-220.874 88.9785 -228.184 106.229 -245.104 116.959Z"></path><path id="路径 81" fill-rule="evenodd" style="fill:#70AAA2" opacity="1" d="M-450.064 298.663C-456.604 297.893 -460.834 294.063 -460.834 287.543C-460.834 274.133 -465.444 259.943 -458.134 246.913C-456.214 255.733 -445.444 259.943 -445.834 269.913C-446.984 296.743 -430.834 300.193 -409.304 297.133C-407.384 296.743 -405.454 297.513 -403.534 297.513C-418.914 304.033 -434.294 300.963 -450.064 298.663Z"></path><path id="路径 82" fill-rule="evenodd" style="fill:#6EB3A7" opacity="1" d="M-42.0644 277.965C-46.6844 279.885 -53.6044 285.635 -56.6844 277.195C-59.7544 268.765 -53.2244 267.225 -46.2944 265.315C-20.1544 257.645 -12.0744 243.465 -17.0744 216.625C-17.8444 213.175 -18.2244 209.345 -18.9944 205.895C-3.23436 234.265 -14.3844 267.225 -42.0644 277.965Z"></path><path id="路径 83" fill-rule="evenodd" style="fill:#F7F7F8" opacity="1" d="M-349.694 109.676C-360.854 112.746 -350.854 126.926 -359.314 128.076C-366.614 129.226 -368.924 121.556 -368.924 114.656C-368.924 107.756 -366.234 102.396 -358.544 101.626C-353.544 102.396 -349.314 109.296 -349.694 109.676Z"></path><path id="路径 84" fill-rule="evenodd" style="fill:#E4E3E9" opacity="1" d="M-438.916 192.478C-433.916 203.598 -428.916 214.708 -422.376 228.898C-448.906 223.528 -440.446 206.658 -438.916 192.478Z"></path><path id="路径 85" fill-rule="evenodd" style="fill:#71BEAD" opacity="1" d="M-175.884 344.282C-167.044 343.132 -159.734 341.982 -149.354 345.432C-165.124 351.952 -165.124 351.952 -175.884 344.282Z"></path><path id="路径 86" fill-rule="evenodd" style="fill:#73C3AF" opacity="1" d="M-314.705 346.579C-323.545 353.099 -330.085 351.569 -341.235 346.969C-329.705 341.979 -323.165 341.979 -314.705 346.579Z"></path><path id="路径 87" fill-rule="evenodd" style="fill:#68C2AF" opacity="1" d="M-285.862 87.0617C-287.022 83.6117 -284.322 82.4617 -281.632 82.8417C-278.942 83.2217 -274.712 81.6917 -274.332 86.2917C-273.942 89.7417 -276.632 91.6617 -280.092 92.8117C-284.322 92.8117 -285.482 89.3617 -285.862 87.0617Z"></path><path id="路径 88" fill-rule="evenodd" style="fill:#CC7C5F" opacity="1" d="M-159.352 368.053C-164.352 371.113 -168.962 370.733 -176.652 367.663C-168.582 362.683 -163.962 360.003 -159.352 368.053Z"></path><path id="路径 89" fill-rule="evenodd" style="fill:#CA7B5F" opacity="1" d="M-321.627 368.053C-326.627 371.113 -331.237 370.733 -338.927 367.283C-330.857 362.303 -325.857 360.383 -321.627 368.053Z"></path><path id="路径 90" fill-rule="evenodd" style="fill:#566680" opacity="1" d="M-123.206 267.61C-123.206 271.45 -125.126 273.75 -128.586 274.13C-133.206 274.51 -135.896 272.21 -136.666 268C-137.436 263.4 -134.356 261.1 -130.126 260.33C-125.896 260.71 -123.586 263.01 -123.206 267.61Z"></path><path id="路径 91" fill-rule="evenodd" style="fill:#62AB98" opacity="1" d="M-424.679 282.18C-422.759 286.4 -424.679 289.85 -428.529 291.38C-432.759 293.3 -436.599 290.23 -436.989 286.78C-437.759 277.2 -443.139 268 -440.449 255.73C-431.609 264.16 -428.909 273.75 -424.679 282.18Z"></path><path id="路径 92" fill-rule="evenodd" style="fill:#333333" opacity="1" d="M-296.263 124.768C-296.133 124.728 -295.993 124.678 -295.863 124.628C-295.863 124.628 -296.243 125.008 -296.243 125.008C-296.243 124.928 -296.253 124.848 -296.263 124.768ZM-311.633 115.048C-312.783 109.298 -308.173 106.608 -303.943 107.378C-294.323 108.528 -295.483 116.198 -296.243 123.098C-296.593 123.778 -296.323 124.158 -296.263 124.768C-305.233 127.958 -310.113 123.728 -311.633 115.048Z"></path></g><g opacity="1" transform="translate(-236.446044921875 178.95525360107422)  rotate(37.066963304382234)"><a xlink:href="https://" xlink:title="跳转" target="_blank"><text><tspan x="0" y="13.75" font-size="16" line-height="0" fill="#000000" opacity="1" font-family="MDDGOOD" font-weight="Regular" letter-spacing="0" >kangchangyuan</tspan></text></a></g></g></svg>