<svg xmlns="http://www.w3.org/2000/svg" xmlns:xlink="http://www.w3.org/1999/xlink" width="201" height="161" viewBox="0 0 201 161" fill="none"><g opacity="1" transform="translate(0 0)  rotate(0 100.00000000000001 80.5)"><path id="路径 74" fill-rule="evenodd" style="fill:#525075" transform="translate(0 0)  rotate(0 100.00000000000001 80.5)" opacity="1" d="M176.28,83.01C176.6,75.92 176.92,68.99 177.25,62.06C177.41,59.8 177.89,56.74 174.99,55.93C171.43,55.13 170.79,58.67 169.82,60.93C167.88,65.28 166.1,69.63 164.16,74.14C161.42,72.21 160.77,69.47 159.48,67.21C156.74,62.38 154.47,58.19 158.67,52.23C162.55,46.91 158.83,40.14 152.21,37.56C145.91,35.15 145.11,31.76 149.63,27.25C151.89,24.83 154.64,23.06 157.06,20.97C161.1,17.58 162.71,13.07 160.77,8.07C158.67,2.92 154.47,0.18 148.82,0.02C141.71,-0.31 137.19,4.05 133.48,9.04C129.44,14.52 126.05,18.23 119.59,11.78C117.49,9.52 113.29,8.07 113.93,14.36C114.09,15.97 115.87,18.55 113.45,19.19C110.54,19.84 109.57,17.26 108.93,14.68C107.63,9.2 103.76,5.82 97.94,5.98C92.29,6.14 87.44,8.88 85.67,14.68C84.54,18.23 82.76,20 79.53,21.45C76.95,22.42 72.91,22.42 72.91,26.12C73.07,29.35 77.75,28.06 79.21,30.63C74.36,31.28 69.68,31.92 65.32,34.02C63.7,34.66 62.25,35.47 62.41,37.4C62.57,39.5 64.51,39.34 66.12,39.5C68.87,39.66 71.78,39.82 74.85,42.08C64.99,42.4 56.11,43.2 48.2,47.72C46.74,48.52 44.8,49.49 45.29,51.91C45.77,54 47.71,53.52 49.17,54C51.91,54.97 55.3,54.32 58.05,57.06C54.01,58.83 50.46,60.12 47.23,61.9C44.48,63.35 39.8,66.41 41.09,68.34C45.13,73.98 40.12,75.92 38.02,78.66C33.01,85.42 28.65,92.35 25.75,100.25C24.78,102.83 25.58,107.34 20.42,106.69C15.57,106.05 12.66,103.47 11.69,98.64C10.08,90.1 14.6,80.91 22.35,76.72C25.1,75.27 27.85,73.34 30.27,71.24C34.79,67.54 34.79,64.8 28.33,63.67C26.71,63.51 23.81,64.47 24.45,61.25C27.2,46.43 12.18,64.96 12.5,54.81C9.92,54.97 9.27,57.06 8.3,59C6.53,62.7 6.2,66.89 7.01,70.76C7.66,73.98 7.01,76.08 5.23,78.82C-5.91,96.54 1.36,115.88 21.22,122.16C23.65,122.97 25.58,123.61 25.91,126.68C26.71,134.57 31.56,140.53 35.76,146.66C37.21,148.59 39.31,150.2 38.99,152.94C37.37,165.19 46.74,159.55 51.43,160.03C58.53,160.84 56.27,155.68 55.46,151.81C55.14,149.72 55.14,147.63 57.4,146.01C60.31,148.11 61.76,150.53 61.76,154.55C61.44,165.03 69.68,159.39 74.04,160.19C79.85,161.16 79.53,157.29 78.4,152.94C76.95,147.63 78.56,144.56 84.86,145.37C89.38,146.01 94.07,146.01 98.59,145.85C105.53,145.53 109.25,149.56 109.57,155.68C109.9,160.36 111.83,160.68 115.55,160.84C127.18,161.32 127.18,161.32 125.89,150.36C125.72,149.72 126.21,148.91 126.53,147.95C130.09,149.08 131.05,151.17 129.92,154.72C129.28,156.65 129.28,159.07 131.22,159.71C135.9,161.16 140.91,161.32 145.43,159.87C148.82,158.74 146.88,154.72 146.72,151.98C146.4,146.17 147.37,142.79 154.8,142.31C165.94,141.5 177.09,140.53 188.39,142.47C198.24,144.08 202.61,137.63 198.41,128.77C196.79,125.39 197.6,122.49 197.92,119.42C198.73,112.17 200.34,103.95 194.85,98.64C189.68,93.64 190.17,88.49 190.33,82.68C190.49,79.78 190.49,76.72 190.49,73.82C190.49,71.4 189.85,69.47 187.26,68.99C185.16,68.66 183.87,70.28 183.06,72.05C181.12,76.08 179.35,80.27 177.41,84.3C177.09,84.13 176.76,83.97 176.28,83.01Z " /><path id="路径 75" fill-rule="evenodd" style="fill:#6BD1B6" transform="translate(29.088815058686105 11.296940443904958)  rotate(0 83.04361266443223 68.93671160709971)" opacity="1" d="M23.31,129.88C25.41,123.6 24.44,117.15 24.6,110.71C24.6,108.93 24.92,107.16 26.86,107C28.8,107 29.28,108.93 29.28,110.54C29.28,114.9 29.28,119.09 29.28,123.44C29.12,126.18 29.61,128.27 33,128.27C45.27,127.95 57.55,131.17 70.15,129.72C68.85,123.76 67.72,118.12 66.75,112.32C66.43,110.38 66.75,108.13 69.18,108.13C71.28,108.13 71.12,110.38 71.28,111.83C72.25,120.21 74.18,128.11 80.32,134.56C82.26,136.65 83.55,138.58 86.94,137.62C90.34,136.65 92.76,135.68 93.73,131.82C95.18,125.69 97.28,119.57 96.8,112.96C96.8,111.35 96.64,109.26 98.73,109.09C101.32,108.77 101.48,111.19 101.48,112.96C101.32,116.02 101.8,119.57 100.83,122.47C98.9,128.27 101.8,128.92 106.33,128.43C108.59,128.11 110.69,127.79 112.79,127.63C124.9,126.66 136.85,124.4 148.97,125.21C153.17,125.37 157.53,126.34 161.73,126.66C164.15,126.82 166.09,125.69 166.09,122.95C166.09,120.37 164.47,119.09 162.05,118.92C160.43,118.76 158.82,118.76 157.2,118.92C137.5,120.05 118.6,117.96 102.45,104.9C99.87,102.81 96.31,99.75 92.44,102.81C89.53,105.07 88.24,103.29 87.91,101.04C87.27,97.01 89.21,93.62 92.92,91.85C95.02,90.89 97.28,90.72 97.6,94.11C98.09,100.39 102.45,100.23 106,97.98C115.86,91.69 124.9,84.6 130.39,73.97C131.52,71.71 132.17,69.78 130.88,67.2C127.97,61.72 125.87,55.92 122.48,50.76C120.06,47.05 117.15,43.03 111.17,48.02C102.93,54.79 91.95,50.44 89.04,40.12C88.24,37.39 88.24,34.32 85.81,32.07C78.87,25.62 75.48,17.89 75.96,8.38C76.12,3.87 74.35,0 69.34,0C64.49,0 61.1,3.38 60.62,8.06C60.13,11.44 61.26,14.99 61.75,18.37C69.99,15.95 69.99,15.95 73.05,25.14C73.54,26.59 74.18,28.2 75.15,29.33C77.9,32.71 76.93,35.45 74.18,38.19C74.83,40.29 79.03,41.41 76.61,43.99C74.51,46.25 72.25,43.35 70.63,41.9C68.53,39.96 66.11,37.87 64.66,35.45C62.39,31.26 60.13,31.91 57.06,34.32C51.09,38.84 44.79,43.03 38.81,47.54C25.57,57.37 12.97,67.84 5.06,82.67C-3.34,98.3 -1.08,119.73 10.39,133.11C12.65,135.84 15.23,136.97 18.78,136.49C23.15,136.01 22.5,132.46 23.31,129.88Z " /><path id="路径 76" fill-rule="evenodd" style="fill:#FDFCFD" transform="translate(138.16083291655482 71.56491059888826)  rotate(0 16.650184608241464 25.5574868090384)" opacity="1" d="M18.09,50.6C22.13,51.89 23.58,50.76 25.2,47.22C32.3,32.39 33.92,16.6 33.11,0C26.65,17.24 16.47,31.42 0,41.09C5.33,46.89 11.63,48.83 18.09,50.6Z " /><path id="路径 77" fill-rule="evenodd" style="fill:#73C4B0" transform="translate(131.342523216216 5.172082034206747)  rotate(0 12.853342290833254 11.603077381892243)" opacity="1" d="M21.52,13.54C25.23,10.8 27.65,7.09 23.62,2.9C19.9,-0.97 15.22,-0.8 11.34,2.42C7.95,5 5.2,8.38 2.46,11.6C0.68,13.86 -1.1,16.12 0.84,19.5C2.62,22.56 5.36,22.88 9.73,23.21C14.41,22.4 16.99,16.6 21.52,13.54Z " /><path id="路径 78" fill-rule="evenodd" style="fill:#9BDCCB" transform="translate(167.28142766306343 98.55786147864463)  rotate(0 12.574418930222416 13.634192496855896)" opacity="1" d="M16.43,27.15C18.53,27.31 20.63,26.99 20.79,24.57C21.43,17.97 24.99,12 25.15,5.24C22.89,-1.53 18.53,-0.73 13.84,2.01C5.77,7.01 2.86,15.23 0.11,23.61C-0.37,24.9 0.76,26.02 2.21,26.51C6.9,27.96 11.74,26.83 16.43,27.15Z " /><path id="路径 79" fill-rule="evenodd" style="fill:#FAFAFB" transform="translate(121.44963438221203 35.91521355079533)  rotate(0 9.868686704424942 10.940133652463368)" opacity="1" d="M2.82 16.47C2.82 16.47 2.83 16.47 2.83 16.46C-2.14 10.74 -0.04 5.8 5.08 1.97C10.09 -1.74 15.26 0.04 18 5.19C20.75 10.51 20.59 16.47 14.93 20.02C10.25 22.92 5.24 22.92 2.82 16.47Z" /><path id="路径 80" fill-rule="evenodd" style="fill:#4B9D88" transform="translate(90.83659555394384 23.581856804729693)  rotate(0 9.401284021347653 12.791997683786912)" opacity="1" d="M12.11,25.58C16.96,25.58 21.16,24.13 17.28,18.82C14.05,14.47 12.44,10.11 12.11,4.96C12.11,2.86 10.98,0.61 8.56,0.12C6.14,-0.36 4.36,0.61 3.07,2.54C2.26,3.83 1.13,4.96 0,6.09C1.94,13.82 5.01,21.07 12.11,25.58Z " /><path id="路径 81" fill-rule="evenodd" style="fill:#70AAA2" transform="translate(169.4949696003316 103.793771644334)  rotate(0 12.334847400483183 11.459208152435513)" opacity="1" d="M19.54,21.75C22.29,21.43 24.07,19.82 24.07,17.08C24.07,11.44 26,5.48 22.94,0C22.13,3.71 17.61,5.48 17.77,9.67C18.25,20.95 11.47,22.4 2.42,21.11C1.62,20.95 0.81,21.27 0,21.27C6.46,24.01 12.92,22.72 19.54,21.75Z " /><path id="路径 82" fill-rule="evenodd" style="fill:#6EB3A7" transform="translate(4.949756230993665 86.55133098502047)  rotate(0 9.592895596057502 15.92494602954235)" opacity="1" d="M12.72,30.3C14.66,31.1 17.57,33.52 18.86,29.97C20.15,26.43 17.4,25.78 14.5,24.98C3.51,21.75 0.12,15.79 2.22,4.51C2.54,3.06 2.71,1.45 3.03,0C-3.59,11.92 1.09,25.78 12.72,30.3Z " /><path id="路径 83" fill-rule="evenodd" style="fill:#F7F7F8" transform="translate(146.8724912632941 42.72007996321455)  rotate(0 4.043011587230312 5.583715456766696)" opacity="1" d="M0.01,3.38C4.69,4.67 0.49,10.64 4.05,11.12C7.12,11.6 8.09,8.38 8.09,5.48C8.09,2.58 6.96,0.32 3.73,0C1.63,0.32 -0.15,3.22 0.01,3.38Z " /><path id="路径 84" fill-rule="evenodd" style="fill:#E4E3E9" transform="translate(177.40926185551226 80.91128030206764)  rotate(0 3.9967435421555573 7.654354498293363)" opacity="1" d="M6.95,0C4.85,4.67 2.75,9.35 0,15.31C11.14,13.05 7.59,5.96 6.95,0Z " /><path id="路径 85" fill-rule="evenodd" style="fill:#71BEAD" transform="translate(62.73278223962876 144.2409922563688)  rotate(0 5.572307812321081 1.4823526941683105)" opacity="1" d="M11.14,0.48C7.43,0 4.36,-0.48 0,0.97C6.62,3.71 6.62,3.71 11.14,0.48Z " /><path id="路径 86" fill-rule="evenodd" style="fill:#73C3AF" transform="translate(132.18473468305115 144.26053084213584)  rotate(0 5.572307812321081 1.6342147391435602)" opacity="1" d="M0,1.43C3.71,4.17 6.46,3.53 11.14,1.59C6.3,-0.5 3.55,-0.5 0,1.43Z " /><path id="路径 87" fill-rule="evenodd" style="fill:#68C2AF" transform="translate(115.21014952621303 34.79439613302354)  rotate(0 2.488036186679366 2.1096824049823213)" opacity="1" d="M4.86,1.8C5.35,0.35 4.21,-0.13 3.08,0.03C1.95,0.19 0.18,-0.45 0.02,1.48C-0.15,2.93 0.98,3.74 2.44,4.22C4.21,4.22 4.7,2.77 4.86,1.8Z " /><path id="路径 88" fill-rule="evenodd" style="fill:#CC7C5F" transform="translate(66.93220261992876 152.56450619356116)  rotate(0 3.634113790644195 1.5204633113480452)" opacity="1" d="M0,2.15C2.1,3.44 4.04,3.28 7.27,1.99C3.88,-0.11 1.94,-1.23 0,2.15Z " /><path id="路径 89" fill-rule="evenodd" style="fill:#CA7B5F" transform="translate(135.09202571556654 152.5559784541692)  rotate(0 3.634113790644195 1.5167642349320516)" opacity="1" d="M0,2.16C2.1,3.45 4.04,3.29 7.27,1.84C3.88,-0.26 1.78,-1.06 0,2.16Z " /><path id="路径 90" fill-rule="evenodd" style="fill:#566680" transform="translate(51.749682783459626 109.433822327287)  rotate(0 2.85135762280521 2.909289868447181)" opacity="1" d="M0,3.06C0,4.67 0.81,5.64 2.26,5.8C4.2,5.96 5.33,5 5.65,3.22C5.98,1.29 4.68,0.32 2.91,0C1.13,0.16 0.16,1.13 0,3.06Z " /><path id="路径 91" fill-rule="evenodd" style="fill:#62AB98" transform="translate(178.0615409888279 107.50009066456037)  rotate(0 3.6265109707271272 7.6174182198303635)" opacity="1" d="M0.32,11.12C-0.49,12.89 0.32,14.34 1.93,14.99C3.71,15.79 5.32,14.5 5.49,13.05C5.81,9.02 8.07,5.16 6.94,0C3.22,3.55 2.09,7.57 0.32,11.12Z " /><path id="路径 92" fill-rule="evenodd" style="fill:#333333" transform="translate(124.2240857130244 45.08330665240111)  rotate(0 3.3720090678867733 3.9053413634025813)" opacity="1" d="M3.44 0.05C5.21 -0.27 7.15 0.86 6.67 3.28C6.03 6.93 3.98 8.7 0.21 7.37C0.218042 7.3003 0.231832 7.23779 0.245014 7.17804C0.281009 7.01488 0.312472 6.87226 0.21 6.66C0.201348 6.58397 0.192593 6.50771 0.183819 6.43129C-0.142063 3.59303 -0.494078 0.527153 3.44 0.05ZM0.21 7.37L0.21 7.47L0.05 7.31C0.1 7.33 0.16 7.35 0.21 7.37Z" /></g></svg>